<?xml version="1.0" encoding="UTF-8"?><svg id="Layer_1" xmlns="http://www.w3.org/2000/svg" viewBox="0 0 256 256"><defs><style>.cls-1{fill:#fff;}</style></defs><g><path class="cls-1" d="M110.62,48.53c-2.08-3.59-6.69-4.83-10.29-2.75L21.54,91.14c-.06,.03-.11,.07-.16,.11-.13,.08-.26,.16-.39,.25-.09,.06-.18,.13-.27,.2-.1,.08-.2,.16-.3,.24-.1,.08-.2,.17-.29,.26-.08,.07-.16,.15-.23,.23-.1,.1-.19,.2-.28,.3-.07,.08-.14,.16-.2,.24-.08,.1-.16,.21-.24,.32-.07,.09-.13,.19-.19,.28-.07,.1-.13,.2-.19,.31-.06,.11-.13,.22-.19,.34-.05,.09-.09,.19-.14,.29-.06,.13-.11,.26-.17,.39-.04,.09-.07,.18-.1,.28-.05,.14-.09,.27-.13,.41-.03,.1-.05,.2-.08,.3-.03,.13-.06,.26-.09,.4-.02,.12-.04,.24-.06,.37-.01,.11-.03,.23-.04,.34-.01,.15-.02,.31-.02,.47,0,.06,0,.13,0,.19l-.02,89.64c0,3.77,2.78,6.9,6.42,7.44,.36,.05,.74,.08,1.11,.08,4.16,0,7.54-3.36,7.54-7.51l.02-85.3L107.86,58.8c3.6-2.07,4.84-6.67,2.76-10.27Z"/><path class="cls-1" d="M126.37,16.02l71.08,40.96-.02,83.12c0,3.77,2.78,6.9,6.42,7.44,.36,.05,.74,.08,1.11,.08,4.16,0,7.54-3.36,7.54-7.51l.02-87.46c0-.07,0-.13-.01-.2,0-.15,0-.3-.02-.45,0-.12-.03-.23-.04-.34-.02-.12-.03-.25-.06-.37-.02-.13-.05-.26-.08-.39-.03-.1-.05-.21-.08-.31-.04-.13-.08-.26-.13-.39-.04-.1-.07-.2-.11-.3-.05-.12-.1-.24-.15-.36-.05-.11-.1-.22-.16-.32-.05-.1-.11-.2-.16-.3-.07-.12-.14-.24-.21-.35-.05-.08-.11-.16-.16-.23-.09-.13-.18-.25-.28-.37-.05-.06-.1-.13-.16-.19-.1-.12-.21-.24-.33-.36-.06-.06-.12-.12-.18-.17-.11-.11-.23-.21-.35-.31-.08-.06-.15-.13-.23-.19-.11-.08-.22-.17-.33-.25-.11-.07-.22-.14-.32-.21-.07-.04-.14-.09-.21-.13L133.9,3.01c-3.61-2.08-8.21-.85-10.29,2.75-2.08,3.59-.85,8.19,2.76,10.27Z"/><path class="cls-1" d="M237.22,183.57c-2.08-3.6-6.69-4.83-10.29-2.75l-72.67,41.83-73.55-42.38c-3.61-2.08-8.21-.85-10.29,2.75-2.08,3.59-.85,8.19,2.75,10.27l77.31,44.55c.06,.03,.11,.06,.17,.09,.09,.05,.19,.1,.28,.14,.15,.07,.31,.14,.46,.21,.08,.03,.16,.07,.24,.1,.2,.07,.39,.13,.59,.19,.05,.01,.09,.03,.14,.04,.26,.07,.51,.12,.77,.16,.39,.06,.79,.08,1.18,.08,.13,0,.26-.02,.4-.03,.26-.02,.51-.03,.77-.08,.16-.03,.32-.07,.48-.11,.23-.05,.46-.11,.68-.18,.15-.05,.3-.11,.45-.17,.24-.1,.47-.21,.7-.33,.07-.04,.15-.06,.22-.1l76.43-44c3.6-2.07,4.84-6.67,2.76-10.27Z"/></g><g><path class="cls-1" d="M177.25,74.18c.85,.49,1.75,.79,2.66,.93,2.97,.44,6.04-.93,7.63-3.68,2.08-3.59,.85-8.19-2.76-10.27L109.94,18.03c-.57-.33-1.17-.56-1.77-.73-2.3-1.47-5.31-1.64-7.83-.19L21.54,62.48c-3.6,2.07-4.84,6.67-2.76,10.27,1.2,2.07,3.23,3.35,5.42,3.68,1.62,.24,3.34-.04,4.87-.93L104.34,32.16l72.91,42.01Z"/><path class="cls-1" d="M131.73,239.97l-73.55-42.38,.02-85.3c0-4.15-3.37-7.52-7.53-7.52-4.16,0-7.53,3.36-7.54,7.51l-.02,89.64c0,.08,0,.16,.01,.25,0,.12,0,.24,.02,.36,.01,.14,.03,.28,.05,.42,.01,.09,.02,.17,.04,.26,.03,.18,.07,.36,.12,.54,.01,.04,.02,.09,.03,.13,.19,.69,.47,1.34,.83,1.94,.04,.07,.09,.14,.14,.21,.08,.12,.16,.24,.24,.36,.07,.09,.14,.17,.21,.26,.08,.09,.15,.18,.23,.27,.08,.09,.16,.17,.24,.25,.08,.09,.17,.17,.26,.25,.08,.07,.16,.14,.24,.21,.11,.09,.22,.18,.33,.26,.07,.05,.14,.11,.22,.16,.15,.1,.3,.2,.45,.29,.04,.02,.07,.05,.11,.07l.1,.06h.02l77.19,44.49c.85,.49,1.75,.79,2.66,.93,2.97,.44,6.04-.93,7.63-3.68,2.08-3.6,.85-8.19-2.75-10.27Z"/><path class="cls-1" d="M230.72,61.51c-4.16,0-7.53,3.36-7.53,7.51l-.02,83.12-72.67,41.83c-3.6,2.08-4.84,6.67-2.76,10.27,1.2,2.07,3.23,3.35,5.42,3.68,1.62,.24,3.34-.04,4.87-.93l76.43-44s.09-.06,.14-.09c.14-.09,.29-.18,.42-.27,.08-.06,.16-.12,.25-.18,.11-.08,.22-.17,.32-.26,.09-.08,.18-.16,.27-.25,.08-.08,.17-.16,.25-.24,.09-.09,.18-.19,.27-.29,.07-.08,.15-.17,.22-.26,.08-.1,.16-.2,.23-.31,.07-.1,.14-.19,.2-.3,.06-.1,.12-.2,.18-.3,.07-.11,.13-.23,.19-.35,.05-.09,.09-.18,.13-.28,.06-.13,.12-.26,.17-.4,.03-.09,.07-.18,.1-.26,.05-.14,.09-.28,.14-.42,.03-.09,.05-.19,.07-.29,.03-.14,.06-.27,.09-.41,.02-.11,.04-.23,.05-.35,.02-.12,.03-.24,.04-.36,.01-.15,.02-.3,.02-.44,0-.07,.01-.14,.01-.21l.02-87.46c0-4.15-3.38-7.52-7.53-7.52Z"/></g></svg>